<mxfile host="app.diagrams.net" modified="2021-07-07T08:45:29.787Z" agent="5.0 (Macintosh; Intel Mac OS X 10_15_6) AppleWebKit/537.36 (KHTML, like Gecko) Chrome/91.0.4472.114 Safari/537.36 Edg/91.0.864.59" etag="YLfthWpOfM4sXgcs9_b6" version="14.8.2" type="github">
  <diagram id="-jmiGNDEfYny9LG27LO0" name="第 1 页">
    <mxGraphModel dx="1378" dy="803" grid="1" gridSize="10" guides="1" tooltips="1" connect="1" arrows="1" fold="1" page="1" pageScale="1" pageWidth="2336" pageHeight="1654" math="0" shadow="0">
      <root>
        <mxCell id="0" />
        <mxCell id="1" parent="0" />
        <mxCell id="VZUwPC20dH6Rq9txh1OI-1" value="Download SDK 1.0" style="rounded=0;whiteSpace=wrap;html=1;" vertex="1" parent="1">
          <mxGeometry x="320" y="200" width="240" height="60" as="geometry" />
        </mxCell>
        <mxCell id="VZUwPC20dH6Rq9txh1OI-2" value="" style="rounded=0;whiteSpace=wrap;html=1;noLabel=0;" vertex="1" parent="1">
          <mxGeometry x="320" y="260" width="120" height="40" as="geometry" />
        </mxCell>
        <mxCell id="VZUwPC20dH6Rq9txh1OI-4" value="" style="rounded=0;whiteSpace=wrap;html=1;fillColor=#ffffff;gradientColor=none;strokeColor=none;imageWidth=23;" vertex="1" parent="1">
          <mxGeometry x="320.5" y="256" width="119" height="10" as="geometry" />
        </mxCell>
        <mxCell id="VZUwPC20dH6Rq9txh1OI-5" value="UAD" style="rounded=0;whiteSpace=wrap;html=1;fillColor=#dae8fc;strokeColor=#6c8ebf;" vertex="1" parent="1">
          <mxGeometry x="450" y="270" width="110" height="120" as="geometry" />
        </mxCell>
        <mxCell id="VZUwPC20dH6Rq9txh1OI-6" value="client-capabilities" style="rounded=0;whiteSpace=wrap;html=1;fillColor=#ffffff;gradientColor=none;" vertex="1" parent="1">
          <mxGeometry x="320" y="310" width="120" height="80" as="geometry" />
        </mxCell>
        <mxCell id="VZUwPC20dH6Rq9txh1OI-8" value="" style="endArrow=none;dashed=1;html=1;dashPattern=1 3;strokeWidth=1;fillColor=#ffe6cc;" edge="1" parent="1">
          <mxGeometry width="50" height="50" relative="1" as="geometry">
            <mxPoint x="170" y="329.71" as="sourcePoint" />
            <mxPoint x="630" y="329.71" as="targetPoint" />
          </mxGeometry>
        </mxCell>
        <mxCell id="VZUwPC20dH6Rq9txh1OI-9" value="" style="endArrow=none;dashed=1;html=1;dashPattern=1 3;strokeWidth=1;fillColor=#ffe6cc;" edge="1" parent="1">
          <mxGeometry width="50" height="50" relative="1" as="geometry">
            <mxPoint x="170" y="266.00000000000006" as="sourcePoint" />
            <mxPoint x="630" y="266.00000000000006" as="targetPoint" />
          </mxGeometry>
        </mxCell>
        <mxCell id="VZUwPC20dH6Rq9txh1OI-12" value="端能力整合&lt;br&gt;实现下载功能" style="text;html=1;align=center;verticalAlign=middle;resizable=0;points=[];autosize=1;strokeColor=none;" vertex="1" parent="1">
          <mxGeometry x="195" y="285" width="90" height="30" as="geometry" />
        </mxCell>
        <mxCell id="VZUwPC20dH6Rq9txh1OI-13" value="下载端能力" style="text;html=1;align=center;verticalAlign=middle;resizable=0;points=[];autosize=1;strokeColor=none;" vertex="1" parent="1">
          <mxGeometry x="200" y="350" width="80" height="20" as="geometry" />
        </mxCell>
        <mxCell id="VZUwPC20dH6Rq9txh1OI-14" value="链接下载能力&lt;br&gt;与 C 端组件" style="text;html=1;align=center;verticalAlign=middle;resizable=0;points=[];autosize=1;strokeColor=none;" vertex="1" parent="1">
          <mxGeometry x="190" y="215" width="90" height="30" as="geometry" />
        </mxCell>
        <mxCell id="VZUwPC20dH6Rq9txh1OI-19" value="手百、好看" style="rounded=0;whiteSpace=wrap;html=1;fillColor=#f5f5f5;strokeColor=#666666;fontColor=#333333;" vertex="1" parent="1">
          <mxGeometry x="420" y="400" width="140.5" height="60" as="geometry" />
        </mxCell>
        <mxCell id="VZUwPC20dH6Rq9txh1OI-21" value="网盟、H5&lt;br&gt;iOS、其他" style="rounded=0;whiteSpace=wrap;html=1;fillColor=#f5f5f5;strokeColor=#666666;fontColor=#333333;" vertex="1" parent="1">
          <mxGeometry x="320" y="400" width="90" height="60" as="geometry" />
        </mxCell>
        <mxCell id="VZUwPC20dH6Rq9txh1OI-24" value="&amp;nbsp;mip-basis-download" style="rounded=0;whiteSpace=wrap;html=1;fillColor=#f5f5f5;strokeColor=#666666;fontColor=#333333;" vertex="1" parent="1">
          <mxGeometry x="320" y="130" width="240" height="60" as="geometry" />
        </mxCell>
        <mxCell id="VZUwPC20dH6Rq9txh1OI-25" value="" style="endArrow=none;dashed=1;html=1;dashPattern=1 3;strokeWidth=1;fillColor=#ffe6cc;" edge="1" parent="1">
          <mxGeometry width="50" height="50" relative="1" as="geometry">
            <mxPoint x="170" y="395.00000000000006" as="sourcePoint" />
            <mxPoint x="630" y="395.00000000000006" as="targetPoint" />
          </mxGeometry>
        </mxCell>
        <mxCell id="VZUwPC20dH6Rq9txh1OI-26" value="APP" style="text;html=1;align=center;verticalAlign=middle;resizable=0;points=[];autosize=1;strokeColor=none;" vertex="1" parent="1">
          <mxGeometry x="220" y="420" width="40" height="20" as="geometry" />
        </mxCell>
        <mxCell id="VZUwPC20dH6Rq9txh1OI-27" value="m-groot 组件" style="text;html=1;align=center;verticalAlign=middle;resizable=0;points=[];autosize=1;strokeColor=none;" vertex="1" parent="1">
          <mxGeometry x="195" y="150" width="80" height="20" as="geometry" />
        </mxCell>
        <mxCell id="VZUwPC20dH6Rq9txh1OI-28" value="" style="endArrow=none;dashed=1;html=1;dashPattern=1 3;strokeWidth=1;fillColor=#ffe6cc;" edge="1" parent="1">
          <mxGeometry width="50" height="50" relative="1" as="geometry">
            <mxPoint x="170" y="195" as="sourcePoint" />
            <mxPoint x="630" y="195" as="targetPoint" />
          </mxGeometry>
        </mxCell>
      </root>
    </mxGraphModel>
  </diagram>
</mxfile>
